# xmcd CD database file
#
# Track frame offsets:
#	150
#	14213
#	28313
#	43890
#	62941
#	77925
#	92870
#	104043
#	123507
#	142447
#	156509
#	173534
#	190803
#
# Disc length: 2767 seconds
#
# Revision: 2
# Processed by: cddbd v1.5.2PL0 Copyright (c) Steve Scherf et al.
# Submitted via: CDex 1.51
#
DISCID=cd0acd0d
DTITLE=Miss Platnum - Miss Platnum - The Sweetest Hangover
DYEAR=2009
DGENRE=Dance Hall
TTITLE0=Why Did You Do It
TTITLE1=She Moved In
TTITLE2=Bollywood Movie
TTITLE3=Don't Go To Strangers
TTITLE4=Where Did You Go Boy
TTITLE5=Drink Sister, Drink
TTITLE6=The Long Goodbye
TTITLE7=Babooshka 2009
TTITLE8=I'm Broke
TTITLE9=Fakebling
TTITLE10=If You Were Mine
TTITLE11=So Beautiful
TTITLE12=Completely Happy
EXTD=YEAR: 2009
EXTT0=
EXTT1=
EXTT2=
EXTT3=
EXTT4=
EXTT5=
EXTT6=
EXTT7=
EXTT8=
EXTT9=
EXTT10=
EXTT11=
EXTT12=
PLAYORDER=
